<svg width="36" height="14" viewBox="0 0 36 14" fill="none" xmlns="http://www.w3.org/2000/svg">
<path d="M35.4653 6.05924L35.0166 5.83855C35.3736 5.11281 35.4801 4.28171 35.3172 3.48365L35.3172 3.48366L35.3156 3.47541C35.1894 2.79887 34.8721 2.17804 34.4061 1.69043C33.9403 1.20299 33.3469 0.870555 32.7016 0.732499L32.7016 0.732568L32.6935 0.730684C32.1792 0.611638 31.6455 0.616015 31.1331 0.743507C30.6206 0.871012 30.1421 1.11852 29.7349 1.46813L29.735 1.46825L29.7255 1.47597C28.4753 2.49742 26.9166 3.03918 25.3175 3.0049H11.2953C9.69622 3.03918 8.13752 2.49742 6.88727 1.47597L6.88717 1.47609L6.87791 1.46814C6.47069 1.11852 5.99221 0.871011 5.47975 0.743507C4.96733 0.616015 4.43359 0.611638 3.91933 0.730684L3.91934 0.730752L3.91117 0.732499C3.26591 0.870554 2.67251 1.20299 2.20668 1.69043C1.74068 2.17804 1.42343 2.79887 1.29718 3.47542L1.29725 3.47543L1.29557 3.48365C1.13279 4.28147 1.23916 5.11232 1.59588 5.83791C1.77728 6.2044 1.87148 6.60918 1.87148 7.01919C1.87148 7.42941 1.77718 7.83439 1.5956 8.20104L1.14764 7.97919L1.59641 8.1994C1.24003 8.92566 1.13355 9.7568 1.29567 10.5552L1.29572 10.5552L1.29715 10.5628C1.42377 11.24 1.74117 11.8614 2.20722 12.35C2.67311 12.8384 3.2666 13.1721 3.91226 13.3117L3.91227 13.3117L3.91932 13.3133C4.43359 13.4323 4.96733 13.428 5.47975 13.3005C5.99221 13.173 6.47069 12.9255 6.87791 12.5758L6.87782 12.5757L6.88687 12.5683C8.13658 11.5452 9.69523 11.0013 11.295 11.0335H25.3178C26.9176 11.0013 28.4762 11.5452 29.7259 12.5683L29.726 12.5682L29.7349 12.5758C30.1421 12.9255 30.6206 13.173 31.1331 13.3005C31.6455 13.428 32.1792 13.4323 32.6935 13.3133L32.6935 13.3132L32.7005 13.3117C33.3462 13.1721 33.9397 12.8384 34.4056 12.35C34.8716 11.8614 35.189 11.24 35.3157 10.5628L35.3156 10.5628L35.3171 10.5552C35.4792 9.75704 35.3728 8.92617 35.0167 8.20007C34.8355 7.83368 34.7413 7.42905 34.7413 7.01919C34.7413 6.60897 34.8356 6.20399 35.0172 5.83734L35.4653 6.05924ZM35.4653 6.05924C35.8714 5.2336 35.992 4.28967 35.8071 3.38369V10.6547C35.9911 9.74867 35.8705 8.80505 35.4653 7.97914C35.3181 7.68193 35.2413 7.35294 35.2413 7.01919C35.2413 6.68544 35.3181 6.35645 35.4653 6.05924Z" stroke="#FFE872"/>
</svg>
