<svg width="37" height="14" viewBox="0 0 37 14" fill="none" xmlns="http://www.w3.org/2000/svg">
<path d="M1.37801 6.05924C0.971893 5.2336 0.85128 4.28967 1.03613 3.38369C1.17992 2.61317 1.54163 1.9038 2.07567 1.34498C2.60971 0.786172 3.29217 0.402931 4.03703 0.243565C4.62821 0.106716 5.24195 0.111757 5.83094 0.2583C6.41992 0.404843 6.9684 0.68897 7.43408 1.08877C8.5948 2.03706 10.0399 2.53789 11.5203 2.5049H25.5534C27.0338 2.53789 28.4789 2.03706 29.6397 1.08877C30.1053 0.68897 30.6538 0.404843 31.2428 0.2583C31.8318 0.111757 32.4455 0.106716 33.0367 0.243565C33.7816 0.402931 34.464 0.786172 34.9981 1.34498C35.5321 1.9038 35.8938 2.61317 36.0376 3.38369C36.2225 4.28967 36.1019 5.2336 35.6957 6.05924C35.5485 6.35645 35.4718 6.68544 35.4718 7.01919C35.4718 7.35294 35.5485 7.68193 35.6957 7.97914C36.101 8.80505 36.2216 9.74867 36.0376 10.6547C35.8934 11.4256 35.5317 12.1355 34.9978 12.6951C34.464 13.2548 33.7817 13.6393 33.0367 13.8004C32.4455 13.9373 31.8318 13.9322 31.2428 13.7857C30.6538 13.6391 30.1053 13.355 29.6397 12.9552C28.4795 12.0053 27.0344 11.5025 25.5534 11.5335H11.5203C10.0393 11.5025 8.59429 12.0053 7.43408 12.9552C6.9684 13.355 6.41992 13.6391 5.83094 13.7857C5.24195 13.9322 4.62821 13.9373 4.03703 13.8004C3.29204 13.6393 2.60979 13.2548 2.0759 12.6951C1.54202 12.1355 1.1803 11.4256 1.03613 10.6547C0.852161 9.74867 0.972733 8.80505 1.37801 7.97914C1.5252 7.68193 1.60195 7.35294 1.60195 7.01919C1.60195 6.68544 1.5252 6.35645 1.37801 6.05924Z" fill="#FFE872"/>
</svg>
