<svg width="93" height="93" viewBox="0 0 93 93" fill="none" xmlns="http://www.w3.org/2000/svg">
<path d="M28.2818 40.5253C19.9257 47.2102 10.7339 33.0047 12.4051 24.6486C7.39145 9.60748 24.1038 3.75817 29.9531 17.9636C37.4736 23.8129 38.3092 40.5253 28.2818 40.5253ZM27.4462 38.0184C36.638 38.854 33.2955 23.8129 28.2818 19.6349V18.7993C23.2681 6.26502 10.7339 11.2787 15.7476 23.8129V24.6486C14.0764 31.3335 20.7613 44.7033 28.2818 38.0184H27.4462Z" fill="#124C5F"/>
<path d="M55.8575 30.4985C47.5014 37.1834 38.3096 22.9779 39.9808 14.6218C34.9671 -0.419287 51.6794 -6.2686 57.5287 8.77248C65.0493 14.6218 65.8849 31.3341 55.8575 31.3341V30.4985ZM55.0219 27.9916C64.2137 28.8273 60.8712 13.7862 55.8575 9.6081V8.77248C50.8438 -3.76175 38.3096 1.25194 43.3233 13.7862V14.6218C41.652 21.3067 48.337 34.6766 55.8575 27.9916H55.0219Z" fill="#124C5F"/>
<path d="M14.0768 68.9371C6.5563 73.9508 -2.63546 66.4303 0.706999 58.0741C-2.63546 47.2111 13.2412 41.3618 18.2549 52.2248C25.7755 56.4029 23.2686 68.1015 14.9125 68.9371H14.0768ZM13.2412 66.4303H14.0768C20.7618 65.5947 22.433 56.4029 16.5837 53.8961L15.7481 53.0604C12.4056 44.7043 -0.128616 49.718 3.21384 58.0741V58.9098C0.706999 64.7591 7.39192 71.444 13.2412 67.2659V66.4303Z" fill="#124C5F"/>
<path d="M84.2682 43.8688C76.7477 48.8825 67.5559 41.3619 70.8984 33.0058C67.5559 22.1428 83.4326 16.2935 88.4463 27.1565C95.9669 31.3345 93.46 43.0332 85.1039 43.8688H84.2682ZM83.4326 41.3619H84.2682C90.9532 40.5263 92.6244 31.3345 86.7751 28.8277L85.9395 27.9921C82.597 19.6359 70.0628 24.6496 73.4052 33.0058V33.8414C70.8984 39.6907 77.5833 46.3756 83.4326 42.1975V41.3619Z" fill="#124C5F"/>
<path d="M27.4467 66.4306C19.0905 40.5265 62.5426 24.6498 72.5699 49.7183C98.474 63.9237 80.9261 81.4717 61.7069 88.9922C42.4878 95.6771 16.5837 94.0059 27.4467 66.4306ZM29.9535 66.4306V67.2662C19.9262 92.3347 43.3234 94.0059 60.8713 87.321C78.4192 80.636 95.9672 65.595 71.7343 52.2251L70.8987 51.3895C61.7069 27.9923 22.433 43.0333 29.9535 66.4306Z" fill="#124C5F"/>
</svg>
