<svg width="30" height="30" viewBox="0 0 30 30" fill="none" xmlns="http://www.w3.org/2000/svg">
<path opacity="0.4" d="M15.0001 27.4992C20.9855 27.4992 25.8376 22.6471 25.8376 16.6617C25.8376 10.6763 20.9855 5.82422 15.0001 5.82422C9.01471 5.82422 4.1626 10.6763 4.1626 16.6617C4.1626 22.6471 9.01471 27.4992 15.0001 27.4992Z" fill="white"/>
<path d="M15 17.1875C14.4875 17.1875 14.0625 16.7625 14.0625 16.25V10C14.0625 9.4875 14.4875 9.0625 15 9.0625C15.5125 9.0625 15.9375 9.4875 15.9375 10V16.25C15.9375 16.7625 15.5125 17.1875 15 17.1875Z" fill="white"/>
<path d="M18.6123 4.3125H11.3873C10.8873 4.3125 10.4873 3.9125 10.4873 3.4125C10.4873 2.9125 10.8873 2.5 11.3873 2.5H18.6123C19.1123 2.5 19.5123 2.9 19.5123 3.4C19.5123 3.9 19.1123 4.3125 18.6123 4.3125Z" fill="white"/>
</svg>
