<svg width="14" height="14" viewBox="0 0 14 14" fill="none" xmlns="http://www.w3.org/2000/svg">
<path d="M10.179 13.2682C9.51984 13.2682 8.82567 13.1107 8.10817 12.8074C7.40817 12.5099 6.70234 12.1016 6.014 11.6057C5.3315 11.1041 4.67234 10.5441 4.04817 9.93156C3.42984 9.3074 2.86984 8.64823 2.374 7.97156C1.87234 7.27156 1.46984 6.57156 1.184 5.8949C0.880671 5.17156 0.729004 4.47156 0.729004 3.8124C0.729004 3.3574 0.810671 2.92573 0.968171 2.52323C1.1315 2.10906 1.394 1.72406 1.74984 1.39156C2.199 0.948229 2.71234 0.726562 3.26067 0.726562C3.48817 0.726562 3.7215 0.779063 3.91984 0.872396C4.14734 0.977396 4.33984 1.1349 4.47984 1.3449L5.83317 3.2524C5.95567 3.42156 6.049 3.5849 6.11317 3.74823C6.189 3.92323 6.22984 4.09823 6.22984 4.2674C6.22984 4.48906 6.16567 4.7049 6.04317 4.90906C5.95567 5.06656 5.8215 5.23573 5.65234 5.4049L5.25567 5.81906C5.2615 5.83656 5.26734 5.84823 5.27317 5.8599C5.34317 5.9824 5.48317 6.1924 5.7515 6.5074C6.03734 6.83406 6.30567 7.13156 6.574 7.40573C6.91817 7.74406 7.204 8.0124 7.47234 8.23406C7.80484 8.51406 8.02067 8.65406 8.149 8.71823L8.13734 8.7474L8.56317 8.3274C8.744 8.14656 8.919 8.0124 9.08817 7.9249C9.409 7.72656 9.81734 7.69156 10.2257 7.86073C10.3773 7.9249 10.5407 8.0124 10.7157 8.1349L12.6523 9.51156C12.8682 9.6574 13.0257 9.84406 13.119 10.0657C13.2065 10.2874 13.2473 10.4916 13.2473 10.6957C13.2473 10.9757 13.1832 11.2557 13.0607 11.5182C12.9382 11.7807 12.7865 12.0082 12.594 12.2182C12.2615 12.5857 11.8998 12.8482 11.4798 13.0174C11.0773 13.1807 10.6398 13.2682 10.179 13.2682ZM3.26067 1.60156C2.93984 1.60156 2.64234 1.74156 2.3565 2.02156C2.08817 2.2724 1.9015 2.54656 1.78484 2.84406C1.66234 3.1474 1.604 3.46823 1.604 3.8124C1.604 4.3549 1.73234 4.94406 1.989 5.55073C2.2515 6.16906 2.619 6.81073 3.08567 7.4524C3.55234 8.09406 4.08317 8.71823 4.6665 9.3074C5.24984 9.8849 5.87984 10.4216 6.52734 10.8941C7.15734 11.3549 7.80484 11.7282 8.4465 11.9966C9.444 12.4224 10.3773 12.5216 11.1473 12.2007C11.4448 12.0782 11.7073 11.8916 11.9465 11.6232C12.0807 11.4774 12.1857 11.3199 12.2732 11.1332C12.3432 10.9874 12.3782 10.8357 12.3782 10.6841C12.3782 10.5907 12.3607 10.4974 12.314 10.3924C12.2965 10.3574 12.2615 10.2932 12.1507 10.2174L10.214 8.84073C10.0973 8.75906 9.99234 8.70073 9.89317 8.6599C9.76484 8.6074 9.71234 8.5549 9.514 8.6774C9.39734 8.73573 9.29234 8.82323 9.17567 8.9399L8.73234 9.3774C8.50484 9.59906 8.15484 9.65156 7.8865 9.5524L7.729 9.4824C7.48984 9.35406 7.20984 9.15573 6.90067 8.89323C6.62067 8.65406 6.31734 8.37406 5.94984 8.0124C5.664 7.72073 5.37817 7.41156 5.08067 7.0674C4.8065 6.74656 4.60817 6.4724 4.48567 6.2449L4.41567 6.0699C4.38067 5.93573 4.369 5.8599 4.369 5.77823C4.369 5.56823 4.44484 5.38156 4.59067 5.23573L5.02817 4.78073C5.14484 4.66406 5.23234 4.55323 5.29067 4.45406C5.33734 4.37823 5.35484 4.31406 5.35484 4.25573C5.35484 4.20906 5.33734 4.13906 5.30817 4.06906C5.26734 3.97573 5.20317 3.87073 5.1215 3.7599L3.76817 1.84656C3.70984 1.7649 3.63984 1.70656 3.55234 1.66573C3.459 1.6249 3.35984 1.60156 3.26067 1.60156ZM8.13734 8.75323L8.044 9.1499L8.2015 8.74156C8.17234 8.73573 8.149 8.74156 8.13734 8.75323Z" fill="#EA6352"/>
<path d="M10.7917 5.6901C10.5525 5.6901 10.3542 5.49177 10.3542 5.2526C10.3542 5.0426 10.1442 4.6051 9.79417 4.23177C9.45 3.86427 9.07083 3.64844 8.75 3.64844C8.51083 3.64844 8.3125 3.4501 8.3125 3.21094C8.3125 2.97177 8.51083 2.77344 8.75 2.77344C9.31583 2.77344 9.91083 3.07677 10.43 3.63094C10.9142 4.1501 11.2292 4.78594 11.2292 5.2526C11.2292 5.49177 11.0308 5.6901 10.7917 5.6901Z" fill="#EA6352"/>
<path d="M12.8333 5.6849C12.5942 5.6849 12.3958 5.48656 12.3958 5.2474C12.3958 3.2349 10.7625 1.60156 8.75 1.60156C8.51083 1.60156 8.3125 1.40323 8.3125 1.16406C8.3125 0.924896 8.51083 0.726562 8.75 0.726562C11.2408 0.726562 13.2708 2.75656 13.2708 5.2474C13.2708 5.48656 13.0725 5.6849 12.8333 5.6849Z" fill="#EA6352"/>
</svg>
