<svg width="24" height="24" viewBox="0 0 24 24" fill="none" xmlns="http://www.w3.org/2000/svg">
<path d="M12 22.75C17.93 22.75 22.75 17.93 22.75 12C22.75 6.07 17.93 1.25 12 1.25C11.59 1.25 11.25 1.59 11.25 2C11.25 2.41 11.59 2.75 12 2.75C17.1 2.75 21.25 6.9 21.25 12C21.25 17.1 17.1 21.25 12 21.25C6.9 21.25 2.75 17.1 2.75 12C2.75 11.59 2.41 11.25 2 11.25C1.59 11.25 1.25 11.59 1.25 12C1.25 17.93 6.07 22.75 12 22.75Z" fill="white"/>
<path d="M11.0001 11.7502C11.1901 11.7502 11.3801 11.6802 11.5301 11.5302C11.8201 11.2402 11.8201 10.7602 11.5301 10.4702L3.33006 2.27023C3.04006 1.98023 2.56006 1.98023 2.27006 2.27023C1.98006 2.56023 1.98006 3.04023 2.27006 3.33023L10.4701 11.5302C10.6201 11.6802 10.8101 11.7502 11.0001 11.7502Z" fill="white"/>
<path d="M2.00008 7.58C2.41008 7.58 2.75008 7.24 2.75008 6.83V2.75H6.83008C7.24008 2.75 7.58008 2.41 7.58008 2C7.58008 1.59 7.24008 1.25 6.83008 1.25H2.00008C1.59008 1.25 1.25008 1.59 1.25008 2V6.83C1.25008 7.24 1.59008 7.58 2.00008 7.58Z" fill="white"/>
</svg>
