<svg width="73" height="50" viewBox="0 0 73 50" fill="none" xmlns="http://www.w3.org/2000/svg">
<path d="M3.89064 21.2697C3.97009 18.2815 7.25697 15.5408 13.1903 13.5002C12.7848 12.6801 12.568 11.7905 12.568 10.8786C12.568 7.34427 15.72 4.47031 19.5936 4.47031C20.4666 4.47031 21.3181 4.6176 22.1324 4.90889C23.4366 3.45411 25.5898 2.56619 27.8795 2.56619C28.9172 2.56619 29.9483 2.74824 30.8859 3.0958C32.5169 1.75853 34.7438 0.998047 37.0649 0.998047C40.1938 0.998047 43.0338 2.33945 44.5887 4.52492C48.267 4.12689 51.5564 5.7844 52.8117 8.39108C55.8959 8.44569 58.4281 10.5443 58.8154 13.2403C65.2435 15.3075 68.8118 18.145 68.8953 21.2681L72.7648 36.4133L72.7847 36.5713C72.7847 43.5456 56.7995 49.0081 36.3922 49.0081C15.9856 49.0081 -0.000335693 43.5448 -0.000335693 36.5713L3.89064 21.2697ZM52.6893 9.67042C52.6371 9.67042 52.5842 9.67373 52.532 9.67704L51.9635 9.70352L51.7989 9.27155C51.0094 7.19863 48.4623 5.75047 45.6057 5.75047C45.2036 5.75047 44.789 5.78275 44.3719 5.84398L43.9573 5.90439L43.7355 5.54939C42.4744 3.5319 39.919 2.27822 37.0658 2.27822C34.9101 2.27822 32.8587 3.01801 31.4411 4.30811L31.1358 4.58533L30.7576 4.42231C29.8813 4.04496 28.8874 3.84553 27.8803 3.84553C25.7909 3.84553 23.8611 4.69291 22.8441 6.05665L22.5437 6.46131L22.0794 6.26188C21.2908 5.92177 20.455 5.74965 19.5936 5.74965C16.4242 5.74965 13.8481 8.05097 13.8481 10.8786C13.8481 11.8062 14.1394 12.7024 14.669 13.4944L14.6707 13.496C14.6723 13.4977 14.674 13.5002 14.6757 13.5026C14.7162 13.5622 14.7468 13.6251 14.789 13.6839L14.8196 13.7252L15.437 14.5503L15.4254 14.5511L14.3604 14.6967C11.8571 15.0393 10.0399 16.2359 10.0399 17.5417C10.0399 18.3271 10.6978 18.9303 11.215 19.2837C11.2977 19.3399 11.3764 19.3912 11.4492 19.4351L12.4869 20.0582L11.3879 20.5638C10.2633 21.081 9.59223 21.9185 9.59223 22.8056C9.59223 24.1279 12.1766 25.5265 14.6186 25.5265H14.7237L14.8238 25.5604C15.9376 25.9377 17.0912 26.2687 18.2679 26.5766C23.2669 27.8791 28.8138 28.5502 34.8331 28.5502C45.1299 28.5502 53.9562 26.5915 56.9609 25.8401C57.6535 25.6671 58.0367 25.5587 58.0557 25.5529L58.2328 25.5281C60.9686 25.5281 63.1929 23.5537 63.1929 21.1274C63.1929 18.7011 60.9686 16.7275 58.2328 16.7275C58.0615 16.7275 57.8919 16.7349 57.7264 16.7506L56.5331 16.8549L57.1099 15.8048C57.4309 15.2197 57.594 14.5983 57.594 13.9594C57.594 13.9214 57.5906 13.885 57.5882 13.8477L57.5683 13.5167C57.3134 11.3585 55.2223 9.67042 52.6893 9.67042ZM58.8327 14.5892C58.8294 14.6157 58.8228 14.643 58.8187 14.6703C58.8129 14.7125 58.8038 14.7538 58.7972 14.7961C58.7599 15.017 58.7111 15.2355 58.6441 15.4506C58.6432 15.4531 58.6432 15.4564 58.6424 15.4589C61.8929 15.6517 64.4723 18.1202 64.4723 21.1274C64.4723 24.2314 61.7216 26.7636 58.3222 26.8066C58.1666 26.8497 57.805 26.9473 57.2696 27.0814C54.1987 27.8493 45.259 29.8287 34.8323 29.8287C34.8306 29.8287 34.8306 29.8287 34.829 29.8287C27.2986 29.8287 20.4641 28.8117 14.5093 26.8066C11.5609 26.7661 8.31123 25.0688 8.31123 22.8072C8.31123 22.5292 8.34847 22.2569 8.42129 21.9921C8.6381 21.1985 9.16936 20.4786 9.95219 19.9217C9.17598 19.2315 8.75975 18.4106 8.75975 17.5426C8.75975 17.4805 8.76802 17.4193 8.77299 17.3572C8.7763 17.3051 8.7763 17.2538 8.78292 17.2041C8.79119 17.1437 8.80526 17.085 8.81685 17.0262C8.82843 16.9699 8.83754 16.9145 8.85243 16.8582C8.85574 16.845 8.85739 16.8317 8.8607 16.8177C6.46504 18.2352 5.16088 19.8075 5.16088 21.3798C5.16088 26.1504 17.711 31.257 36.393 31.257C55.075 31.257 67.6243 26.1504 67.6243 21.3798C67.6243 18.9088 64.4334 16.4544 58.8327 14.5892ZM36.393 47.7304C55.3448 47.7304 71.3688 42.6635 71.5053 36.6474L68.2052 23.7324C65.1392 28.8216 52.2656 32.5372 36.393 32.5372C20.5221 32.5372 7.64674 28.8216 4.58244 23.7307L1.28065 36.6466C1.4172 42.6635 17.4412 47.7304 36.393 47.7304Z" fill="#124C5F"/>
<path d="M25.1877 37.3003C25.1877 35.6081 26.563 34.2344 28.2553 34.2344C29.8929 34.2344 31.236 35.5261 31.3163 37.1456H41.4691C41.5502 35.5261 42.8932 34.2344 44.5317 34.2344C46.2223 34.2344 47.5977 35.6081 47.5977 37.3003C47.5977 38.2876 47.1301 39.1655 46.4044 39.7266C47.1301 40.2877 47.5977 41.1665 47.5977 42.1529C47.5977 43.8451 46.2223 45.2205 44.5317 45.2205C42.8932 45.2205 41.5493 43.9271 41.4691 42.3076H31.3163C31.2352 43.9271 29.8921 45.2205 28.2553 45.2205C26.563 45.2205 25.1877 43.8451 25.1877 42.1529C25.1877 41.1673 25.6561 40.2877 26.3801 39.7266C25.6561 39.1655 25.1877 38.2884 25.1877 37.3003ZM26.4662 42.1529C26.4662 43.1384 27.2697 43.9403 28.2553 43.9403C29.2392 43.9403 30.0411 43.1384 30.0411 42.1529C30.0411 42.0345 30.0278 41.9154 30.0038 41.797L29.8483 41.0291H42.9371L42.7815 41.797C42.7575 41.9154 42.7451 42.0345 42.7451 42.1529C42.7451 43.1384 43.547 43.9403 44.5325 43.9403C45.5173 43.9403 46.3191 43.1384 46.3191 42.1529C46.3191 41.169 45.5173 40.3671 44.5325 40.3671V39.0869C45.5173 39.0869 46.3191 38.2851 46.3191 37.3012C46.3191 36.3156 45.5173 35.5137 44.5325 35.5137C43.547 35.5137 42.7451 36.3156 42.7451 37.3012C42.7451 37.4211 42.7575 37.5403 42.7815 37.6586L42.9371 38.4266H29.8491L30.0047 37.6586C30.0287 37.5386 30.0419 37.4195 30.0419 37.3012C30.0419 36.3156 29.24 35.5137 28.2561 35.5137C27.2705 35.5137 26.467 36.3156 26.467 37.3012C26.467 38.2851 27.2705 39.0869 28.2561 39.0869V40.3671C27.2697 40.3663 26.4662 41.1681 26.4662 42.1529Z" fill="#124C5F"/>
</svg>
