<svg width="372" height="92" viewBox="0 0 372 92" fill="none" xmlns="http://www.w3.org/2000/svg">
<path d="M297.24 41.3672H223.381V57.6196C223.381 76.5689 238.742 91.9303 257.691 91.9303H262.93C281.879 91.9303 297.24 76.5689 297.24 57.6196V41.3672Z" fill="white"/>
<path d="M149.521 41.3672H74.7612V57.6196C74.7612 76.5689 90.1226 91.9303 109.072 91.9303H115.211C134.16 91.9303 149.521 76.5689 149.521 57.6196V41.3672Z" fill="white"/>
<rect width="74.7603" height="52.3689" transform="matrix(-1 0 0 1 372 -11)" fill="#EA6352"/>
<rect width="73.8595" height="52.3689" transform="matrix(-1 0 0 1 297.24 -11)" fill="#DEDFE1"/>
<rect width="74.7603" height="52.3689" transform="matrix(-1 0 0 1 223.381 -11)" fill="#EA6352"/>
<rect width="74.7603" height="52.3689" transform="matrix(-1 0 0 1 149.521 -11)" fill="#DEDFE1"/>
<rect width="74.7603" height="52.3689" transform="matrix(-1 0 0 1 74.7598 -11)" fill="#EA6352"/>
<path d="M372 41.3672H297.24V57.6196C297.24 76.5689 312.601 91.9303 331.55 91.9303H337.689C356.639 91.9303 372 76.5689 372 57.6196V41.3672Z" fill="#FFA498"/>
<path d="M223.381 41.3672H149.521V57.6196C149.521 76.5689 164.883 91.9303 183.832 91.9303H189.07C208.019 91.9303 223.381 76.5689 223.381 57.6196V41.3672Z" fill="#FFA498"/>
<path d="M74.7598 41.3672H-0.000488281V57.6196C-0.000488281 76.5689 15.3609 91.9303 34.3102 91.9303H40.4491C59.3984 91.9303 74.7598 76.5689 74.7598 57.6196V41.3672Z" fill="#FFA498"/>
</svg>
