<svg width="21" height="21" viewBox="0 0 21 21" fill="none" xmlns="http://www.w3.org/2000/svg">
<path d="M19.2115 7.00449L17.4889 5.83032C17.1601 5.60784 16.8123 5.12127 16.7088 4.7349L16.2688 3.09283C15.9944 2.06895 14.9289 1.45377 13.905 1.72811L12.2629 2.16811C11.8862 2.26904 11.2813 2.21373 10.9242 2.04023L9.04608 1.13551C8.22689 0.744196 7.13539 1.03666 6.61195 1.78773L5.45003 3.5174C5.22495 3.83652 4.72873 4.18689 4.35202 4.28783L2.68096 4.73559C1.65708 5.00994 1.0419 6.07547 1.31625 7.09935L1.75883 8.75108C1.85977 9.12779 1.80186 9.72306 1.63803 10.0775L0.74555 11.9628C0.363898 12.7794 0.653776 13.8612 1.3926 14.3776L3.10812 15.564C3.42725 15.7891 3.77503 16.2756 3.87597 16.6524L4.31855 18.3041C4.5929 19.328 5.65843 19.9432 6.68231 19.6688L8.35336 19.221C8.73007 19.1201 9.335 19.1754 9.69207 19.3489L11.5702 20.2536C12.3894 20.645 13.4809 20.3525 14.0044 19.6014L15.1785 17.8788C15.401 17.55 15.8876 17.2023 16.274 17.0987L17.916 16.6587C18.9399 16.3844 19.5551 15.3189 19.2807 14.295L18.8407 12.6529C18.7398 12.2762 18.7951 11.6713 18.9686 11.3142L19.8733 9.43604C20.255 8.61943 19.9599 7.51828 19.2115 7.00449ZM13.8324 7.79358L10.4171 13.7091C10.3181 13.8806 10.1553 14.007 9.96208 14.0588C9.7689 14.1105 9.56467 14.0824 9.3932 13.9834L6.42932 12.2723C6.07414 12.0672 5.94991 11.6035 6.15497 11.2484C6.36003 10.8932 6.82368 10.769 7.17885 10.974L9.49362 12.3105L12.5342 7.04405C12.7392 6.68887 13.2029 6.56464 13.5581 6.7697C13.9132 6.97476 14.0375 7.43841 13.8324 7.79358Z" fill="url(#paint0_linear_1289_4530)"/>
<defs>
<linearGradient id="paint0_linear_1289_4530" x1="-1.2465" y1="6.20905" x2="18.4112" y2="1.30987" gradientUnits="userSpaceOnUse">
<stop stop-color="#FA5456"/>
<stop offset="0.0001" stop-color="#F04770"/>
<stop offset="1" stop-color="#FFA000"/>
</linearGradient>
</defs>
</svg>
