<svg width="175" height="152" viewBox="0 0 175 152" fill="none" xmlns="http://www.w3.org/2000/svg">
<path d="M174.427 64.8809C174.427 64.8809 182.427 27.8666 127.427 5.36659C72.4272 -17.1334 -34.0728 49.8666 12.4272 98.3666C58.9272 146.867 84.4272 165.367 127.427 141.367C170.427 117.366 174.427 64.8809 174.427 64.8809Z" fill="#EA6352"/>
<path d="M70.7835 109.417C70.7835 109.097 70.8262 108.798 70.9115 108.521C70.9968 108.233 71.1195 107.945 71.2795 107.657C71.4502 107.369 71.6635 107.076 71.9195 106.777C72.1755 106.468 72.4795 106.132 72.8315 105.769L72.0955 105.033L72.9915 104.073C73.6528 104.724 74.2022 105.289 74.6395 105.769C75.0875 106.249 75.4448 106.681 75.7115 107.065C75.9888 107.449 76.1808 107.812 76.2875 108.153C76.4048 108.484 76.4635 108.83 76.4635 109.193C76.4635 109.577 76.3888 109.934 76.2395 110.265C76.1008 110.596 75.8982 110.884 75.6315 111.129C75.3755 111.364 75.0715 111.55 74.7195 111.689C74.3675 111.817 73.9835 111.881 73.5675 111.881C73.1515 111.881 72.7675 111.822 72.4155 111.705C72.0742 111.577 71.7808 111.406 71.5355 111.193C71.3008 110.98 71.1142 110.724 70.9755 110.425C70.8475 110.116 70.7835 109.78 70.7835 109.417ZM75.1515 109.129C75.1515 108.958 75.1302 108.793 75.0875 108.633C75.0448 108.473 74.9648 108.302 74.8475 108.121C74.7302 107.929 74.5702 107.721 74.3675 107.497C74.1755 107.262 73.9248 106.996 73.6155 106.697C73.2848 107.017 73.0182 107.3 72.8155 107.545C72.6128 107.79 72.4582 108.009 72.3515 108.201C72.2448 108.393 72.1702 108.569 72.1275 108.729C72.0955 108.878 72.0795 109.028 72.0795 109.177C72.0795 109.54 72.2075 109.849 72.4635 110.105C72.7302 110.35 73.1035 110.473 73.5835 110.473C74.0635 110.473 74.4422 110.34 74.7195 110.073C75.0075 109.806 75.1515 109.492 75.1515 109.129ZM81.2335 110.473C81.6602 110.473 81.9588 110.382 82.1295 110.201C82.3002 110.02 82.3855 109.844 82.3855 109.673C82.3855 109.577 82.3642 109.449 82.3215 109.289C82.2895 109.129 82.2202 108.884 82.1135 108.553C82.0068 108.222 81.8522 107.78 81.6495 107.225C81.4468 106.66 81.1855 105.929 80.8655 105.033L82.1135 104.521L83.7935 109.273C83.9428 109.71 84.1188 110.02 84.3215 110.201C84.5242 110.382 84.8228 110.473 85.2175 110.473H85.4255C85.6602 110.473 85.7775 110.702 85.7775 111.161C85.7775 111.641 85.6602 111.881 85.4255 111.881H85.2175C84.8655 111.881 84.5242 111.817 84.1935 111.689C83.8735 111.561 83.5802 111.278 83.3135 110.841C83.0895 111.246 82.8068 111.524 82.4655 111.673C82.1348 111.812 81.7722 111.881 81.3775 111.881H77.9375L77.8575 110.473H81.2335ZM89.4694 106.905C89.0214 106.905 88.6587 107.054 88.3814 107.353C88.1147 107.641 87.9814 107.998 87.9814 108.425C87.9814 108.649 88.0241 108.857 88.1094 109.049C88.2054 109.241 88.3281 109.417 88.4774 109.577C88.6374 109.726 88.8081 109.865 88.9894 109.993C89.1814 110.11 89.3734 110.217 89.5654 110.313C89.7254 110.217 89.8854 110.11 90.0454 109.993C90.2161 109.865 90.3654 109.726 90.4934 109.577C90.6321 109.428 90.7441 109.262 90.8294 109.081C90.9147 108.889 90.9574 108.681 90.9574 108.457C90.9574 107.998 90.8187 107.625 90.5414 107.337C90.2747 107.049 89.9174 106.905 89.4694 106.905ZM85.4214 111.881C85.2827 111.881 85.1921 111.828 85.1494 111.721C85.0961 111.604 85.0694 111.433 85.0694 111.209C85.0694 110.953 85.0961 110.766 85.1494 110.649C85.1921 110.532 85.2827 110.473 85.4214 110.473H88.1254C87.7094 110.185 87.3787 109.86 87.1334 109.497C86.8881 109.124 86.7654 108.702 86.7654 108.233C86.7654 107.881 86.8294 107.545 86.9574 107.225C87.0854 106.894 87.2667 106.606 87.5014 106.361C87.7467 106.116 88.0454 105.918 88.3974 105.769C88.7494 105.62 89.1441 105.545 89.5814 105.545C90.0187 105.545 90.3974 105.62 90.7174 105.769C91.0481 105.918 91.3201 106.116 91.5334 106.361C91.7467 106.606 91.9067 106.884 92.0134 107.193C92.1201 107.502 92.1734 107.817 92.1734 108.137C92.1734 108.617 92.0667 109.049 91.8534 109.433C91.6507 109.806 91.3414 110.153 90.9254 110.473H93.4854C93.8267 110.473 94.0881 110.398 94.2694 110.249C94.4507 110.089 94.5414 109.886 94.5414 109.641C94.5414 109.385 94.4134 109.097 94.1574 108.777L91.3574 105.465L92.3334 104.553L95.1654 107.929C95.4641 108.292 95.6721 108.628 95.7894 108.937C95.9067 109.246 95.9654 109.55 95.9654 109.849C95.9654 110.137 95.9121 110.404 95.8054 110.649C95.6987 110.894 95.5441 111.108 95.3414 111.289C95.1494 111.47 94.9041 111.614 94.6054 111.721C94.3067 111.828 93.9654 111.881 93.5814 111.881H91.8214C91.3307 111.881 90.8934 111.865 90.5094 111.833C90.1361 111.801 89.8374 111.726 89.6134 111.609C89.4641 111.673 89.2774 111.726 89.0534 111.769C88.8401 111.801 88.6161 111.828 88.3814 111.849C88.1574 111.86 87.9334 111.87 87.7094 111.881C87.4961 111.881 87.3147 111.881 87.1654 111.881H85.4214ZM99.9975 111.881C99.7095 111.881 99.4322 111.844 99.1655 111.769C98.8988 111.684 98.6642 111.545 98.4615 111.353C98.2695 111.161 98.1148 110.91 97.9975 110.601C97.8802 110.281 97.8215 109.886 97.8215 109.417V101.961H99.1335V109.129C99.1335 109.534 99.2188 109.86 99.3895 110.105C99.5708 110.35 99.8535 110.473 100.238 110.473H100.558C100.792 110.473 100.91 110.702 100.91 111.161C100.91 111.641 100.792 111.881 100.558 111.881H99.9975ZM101.202 110.473C102.045 110.473 102.466 110.084 102.466 109.305V107.257H103.778V109.305C103.778 109.518 103.815 109.7 103.89 109.849C103.965 109.998 104.061 110.121 104.178 110.217C104.295 110.302 104.429 110.366 104.578 110.409C104.738 110.452 104.898 110.473 105.058 110.473C105.975 110.473 106.434 110.084 106.434 109.305V107.257H107.746V109.305C107.746 109.742 107.858 110.046 108.082 110.217C108.317 110.388 108.589 110.473 108.898 110.473C109.271 110.473 109.559 110.372 109.762 110.169C109.975 109.966 110.082 109.678 110.082 109.305V107.257H111.394V109.305C111.394 109.518 111.426 109.7 111.49 109.849C111.565 109.998 111.661 110.121 111.778 110.217C111.895 110.302 112.029 110.366 112.178 110.409C112.327 110.452 112.477 110.473 112.626 110.473H112.962C113.197 110.473 113.314 110.702 113.314 111.161C113.314 111.641 113.197 111.881 112.962 111.881H112.626C112.231 111.881 111.863 111.812 111.522 111.673C111.191 111.534 110.914 111.262 110.69 110.857C110.445 111.262 110.157 111.534 109.826 111.673C109.506 111.812 109.197 111.881 108.898 111.881C108.525 111.881 108.178 111.812 107.858 111.673C107.538 111.534 107.266 111.262 107.042 110.857C106.797 111.262 106.498 111.534 106.146 111.673C105.794 111.812 105.431 111.881 105.058 111.881C104.653 111.881 104.274 111.812 103.922 111.673C103.581 111.534 103.298 111.262 103.074 110.857C102.829 111.262 102.541 111.534 102.21 111.673C101.879 111.812 101.527 111.881 101.154 111.881H100.562C100.423 111.881 100.333 111.828 100.29 111.721C100.237 111.604 100.21 111.433 100.21 111.209C100.21 110.953 100.237 110.766 100.29 110.649C100.333 110.532 100.423 110.473 100.562 110.473H101.202ZM107.826 103.225H106.354V101.897H107.826V103.225ZM108.882 105.289H107.426V103.945H108.882V105.289ZM106.738 105.289H105.282V103.945H106.738V105.289ZM113.176 110.473C113.987 110.473 114.392 110.132 114.392 109.449V108.953C114.392 108.046 114.627 107.332 115.096 106.809C115.576 106.276 116.238 106.009 117.08 106.009C117.518 106.009 117.902 106.084 118.232 106.233C118.563 106.372 118.84 106.569 119.064 106.825C119.288 107.081 119.454 107.39 119.56 107.753C119.678 108.105 119.736 108.494 119.736 108.921C119.736 109.86 119.496 110.59 119.016 111.113C118.536 111.625 117.875 111.881 117.032 111.881C116.606 111.881 116.195 111.801 115.8 111.641C115.416 111.47 115.118 111.188 114.904 110.793C114.808 111.017 114.691 111.204 114.552 111.353C114.414 111.492 114.27 111.604 114.12 111.689C113.971 111.764 113.811 111.817 113.64 111.849C113.48 111.87 113.326 111.881 113.176 111.881H112.968C112.83 111.881 112.739 111.828 112.696 111.721C112.643 111.604 112.616 111.433 112.616 111.209C112.616 110.953 112.643 110.766 112.696 110.649C112.739 110.532 112.83 110.473 112.968 110.473H113.176ZM118.456 109.017C118.456 108.548 118.35 108.164 118.136 107.865C117.934 107.566 117.571 107.417 117.048 107.417C116.568 107.417 116.211 107.561 115.976 107.849C115.752 108.137 115.64 108.542 115.64 109.065C115.64 109.534 115.768 109.886 116.024 110.121C116.291 110.356 116.627 110.473 117.032 110.473C117.512 110.473 117.87 110.35 118.104 110.105C118.339 109.849 118.456 109.486 118.456 109.017Z" fill="white"/>
<path d="M108.13 58.2187C108.098 58.5324 107.893 58.8754 107.419 59.224C102.773 62.6424 98.1266 66.0607 93.4806 69.479C92.4886 70.2088 90.1349 70.3787 90.1349 68.6616C90.1349 62.3364 90.1349 56.0112 90.1349 49.686C90.1349 48.1322 92.6612 47.7493 93.6723 48.3819C98.3184 51.2888 102.964 54.1957 107.61 57.1026C108.142 57.4355 108.259 57.8344 108.13 58.2187ZM123.927 63.6102C122.455 96.348 62.9611 89.5658 69.4168 55.1036C72.1256 40.6434 85.0747 33.0387 99.3023 33.955C115.317 34.9866 123.636 48.495 123.926 63.3936C123.927 63.4311 123.9 63.4623 123.895 63.4985C123.901 63.539 123.929 63.5649 123.927 63.6102ZM120.942 64.0339C120.7 53.488 116.667 42.0985 106.261 37.5656C92.4689 31.5579 76.2194 38.6435 72.7145 53.2448C69.5796 66.3044 76.551 77.8832 89.3069 82.0713C102.905 86.5359 120.199 79.5105 120.942 64.0339Z" fill="white"/>
</svg>
