<svg width="400" height="400" viewBox="0 0 400 400" fill="none" xmlns="http://www.w3.org/2000/svg">
<path opacity="0.4" d="M318 261.999C308.167 203.165 251.667 155.332 192 155.332C127.167 155.332 70.1667 207.832 64.6667 272.499C62.5 297.499 70.5 321.165 87 338.999C103.333 356.832 126.333 366.665 151.333 366.665H229.333C257.5 366.665 282.167 355.665 299 335.832C315.833 315.999 322.5 289.665 318 261.999Z" fill="#9B9BA1"/>
<path d="M171.333 130.999C198.303 130.999 220.167 109.135 220.167 82.1654C220.167 55.1955 198.303 33.332 171.333 33.332C144.363 33.332 122.5 55.1955 122.5 82.1654C122.5 109.135 144.363 130.999 171.333 130.999Z" fill="#9B9BA1"/>
<path d="M282.333 150.501C304.793 150.501 323 132.294 323 109.835C323 87.3751 304.793 69.168 282.333 69.168C259.874 69.168 241.667 87.3751 241.667 109.835C241.667 132.294 259.874 150.501 282.333 150.501Z" fill="#9B9BA1"/>
<path d="M342.5 215.5C360.449 215.5 375 200.949 375 183C375 165.051 360.449 150.5 342.5 150.5C324.551 150.5 310 165.051 310 183C310 200.949 324.551 215.5 342.5 215.5Z" fill="#9B9BA1"/>
<path d="M65.6667 183.001C88.1262 183.001 106.333 164.794 106.333 142.335C106.333 119.875 88.1262 101.668 65.6667 101.668C43.2071 101.668 25 119.875 25 142.335C25 164.794 43.2071 183.001 65.6667 183.001Z" fill="#9B9BA1"/>
</svg>
