<svg width="27" height="25" viewBox="0 0 27 25" fill="none" xmlns="http://www.w3.org/2000/svg">
<path d="M13.5 22.5534C13.1512 22.5534 12.8138 22.5117 12.5325 22.418C8.235 21.0534 1.40625 16.2096 1.40625 9.05338C1.40625 5.40755 4.59 2.44922 8.505 2.44922C10.4062 2.44922 12.1838 3.13672 13.5 4.36589C14.8162 3.13672 16.5938 2.44922 18.495 2.44922C22.41 2.44922 25.5938 5.41797 25.5938 9.05338C25.5938 16.2201 18.765 21.0534 14.4675 22.418C14.1862 22.5117 13.8488 22.5534 13.5 22.5534ZM8.505 4.01172C5.52375 4.01172 3.09375 6.27213 3.09375 9.05338C3.09375 16.168 10.485 20.1263 13.0837 20.9492C13.2863 21.0117 13.725 21.0117 13.9275 20.9492C16.515 20.1263 23.9175 16.1784 23.9175 9.05338C23.9175 6.27213 21.4875 4.01172 18.5063 4.01172C16.7963 4.01172 15.21 4.7513 14.1862 6.03255C13.8712 6.42839 13.1512 6.42839 12.8363 6.03255C11.79 4.74089 10.215 4.01172 8.505 4.01172Z" fill="#EA6352"/>
</svg>
