<svg width="42" height="42" viewBox="0 0 42 42" fill="none" xmlns="http://www.w3.org/2000/svg">
<path d="M25.7251 39.8142H16.2751C7.63008 39.8142 3.95508 36.1217 3.95508 27.4942V19.6367C3.95508 18.9192 4.55008 18.3242 5.26758 18.3242C5.98508 18.3242 6.58008 18.9192 6.58008 19.6367V27.4942C6.58008 34.6517 9.11758 37.1892 16.2751 37.1892H25.7076C32.8651 37.1892 35.4026 34.6517 35.4026 27.4942V19.6367C35.4026 18.9192 35.9976 18.3242 36.7151 18.3242C37.4326 18.3242 38.0276 18.9192 38.0276 19.6367V27.4942C38.0451 36.1217 34.3526 39.8142 25.7251 39.8142Z" fill="#EA6352"/>
<path d="M20.9998 22.3125C19.0748 22.3125 17.3248 21.56 16.0823 20.1775C14.8398 18.795 14.2623 16.9925 14.4548 15.0675L15.6273 3.3775C15.6973 2.7125 16.2573 2.1875 16.9398 2.1875H25.1123C25.7948 2.1875 26.3548 2.695 26.4248 3.3775L27.5973 15.0675C27.7898 16.9925 27.2123 18.795 25.9698 20.1775C24.6748 21.56 22.9248 22.3125 20.9998 22.3125ZM18.1123 4.8125L17.0623 15.33C16.9398 16.5025 17.2898 17.605 18.0248 18.41C19.5123 20.055 22.4873 20.055 23.9748 18.41C24.7098 17.5875 25.0598 16.485 24.9373 15.33L23.8873 4.8125H18.1123Z" fill="#EA6352"/>
<path d="M32.0425 22.3125C28.49 22.3125 25.3225 19.4425 24.955 15.9075L23.73 3.64C23.695 3.2725 23.8175 2.905 24.0625 2.625C24.3075 2.345 24.6575 2.1875 25.0425 2.1875H30.38C35.525 2.1875 37.9225 4.34 38.64 9.625L39.13 14.49C39.34 16.555 38.71 18.515 37.3625 20.0025C36.015 21.49 34.125 22.3125 32.0425 22.3125ZM26.495 4.8125L27.58 15.645C27.8075 17.8325 29.8375 19.6875 32.0425 19.6875C33.3725 19.6875 34.5625 19.18 35.42 18.2525C36.26 17.325 36.645 16.0825 36.5225 14.7525L36.0325 9.94C35.49 5.985 34.2125 4.8125 30.38 4.8125H26.495Z" fill="#EA6352"/>
<path d="M9.86979 22.3125C7.78729 22.3125 5.89729 21.49 4.54979 20.0025C3.20229 18.515 2.57229 16.555 2.78229 14.49L3.25479 9.6775C3.98979 4.34 6.38729 2.1875 11.5323 2.1875H16.8698C17.2373 2.1875 17.5873 2.345 17.8498 2.625C18.1123 2.905 18.2173 3.2725 18.1823 3.64L16.9573 15.9075C16.5898 19.4425 13.4223 22.3125 9.86979 22.3125ZM11.5323 4.8125C7.69979 4.8125 6.42229 5.9675 5.86229 9.975L5.38979 14.7525C5.24979 16.0825 5.65229 17.325 6.49229 18.2525C7.33229 19.18 8.52229 19.6875 9.86979 19.6875C12.0748 19.6875 14.1223 17.8325 14.3323 15.645L15.4173 4.8125H11.5323Z" fill="#EA6352"/>
<path d="M25.375 39.8125H16.625C15.9075 39.8125 15.3125 39.2175 15.3125 38.5V34.125C15.3125 30.45 17.325 28.4375 21 28.4375C24.675 28.4375 26.6875 30.45 26.6875 34.125V38.5C26.6875 39.2175 26.0925 39.8125 25.375 39.8125ZM17.9375 37.1875H24.0625V34.125C24.0625 31.92 23.205 31.0625 21 31.0625C18.795 31.0625 17.9375 31.92 17.9375 34.125V37.1875Z" fill="#EA6352"/>
</svg>
